<svg width="20" height="20" viewBox="0 0 20 20" fill="none" xmlns="http://www.w3.org/2000/svg">
<path d="M7.5 15C7.04167 15 6.64944 14.837 6.32333 14.5109C5.99667 14.1842 5.83333 13.7917 5.83333 13.3334L5.83333 3.33335C5.83333 2.87502 5.99667 2.48252 6.32333 2.15585C6.64944 1.82974 7.04167 1.66669 7.5 1.66669L15 1.66669C15.4583 1.66669 15.8508 1.82974 16.1775 2.15585C16.5036 2.48252 16.6667 2.87502 16.6667 3.33335V13.3334C16.6667 13.7917 16.5036 14.1842 16.1775 14.5109C15.8508 14.837 15.4583 15 15 15L7.5 15ZM7.5 13.3334L15 13.3334L15 3.33335L7.5 3.33335L7.5 13.3334ZM4.16667 18.3334C3.70833 18.3334 3.31583 18.1703 2.98917 17.8442C2.66306 17.5175 2.5 17.125 2.5 16.6667L2.5 5.83335C2.5 5.59724 2.58 5.39919 2.74 5.23919C2.89944 5.07974 3.09722 5.00002 3.33333 5.00002C3.56944 5.00002 3.7675 5.07974 3.9275 5.23919C4.08694 5.39919 4.16667 5.59724 4.16667 5.83335L4.16667 16.6667H12.5C12.7361 16.6667 12.9342 16.7467 13.0942 16.9067C13.2536 17.0661 13.3333 17.2639 13.3333 17.5C13.3333 17.7361 13.2536 17.9339 13.0942 18.0934C12.9342 18.2534 12.7361 18.3334 12.5 18.3334H4.16667ZM7.5 3.33335L7.5 13.3334L7.5 3.33335Z" fill="#66726F"/>
</svg>
