<svg width="25" height="26" viewBox="0 0 25 26" fill="none" xmlns="http://www.w3.org/2000/svg">
<g opacity="0.5">
<path d="M11.1178 21.0825L9.3515 19.4698C7.54255 17.8144 5.90868 16.1717 4.44992 14.5416C2.99047 12.9121 2.26074 11.1162 2.26074 9.15362C2.26074 7.54945 2.79831 6.2098 3.87344 5.13467C4.94857 4.05954 6.28822 3.52197 7.89239 3.52197C8.79687 3.52197 9.65015 3.71379 10.4522 4.09742C11.2543 4.48174 11.9369 5.00668 12.5001 5.67224C13.0633 5.00668 13.7459 4.48174 14.548 4.09742C15.3501 3.71379 16.2033 3.52197 17.1078 3.52197C18.712 3.52197 20.0516 4.05954 21.1268 5.13467C22.2019 6.2098 22.7395 7.54945 22.7395 9.15362C22.7395 11.1162 22.0142 12.9166 20.5636 14.5549C19.113 16.1932 17.4662 17.84 15.6231 19.4954L13.8824 21.0825C13.4899 21.4579 13.0291 21.6456 12.5001 21.6456C11.9711 21.6456 11.5103 21.4579 11.1178 21.0825ZM11.5274 7.72011C11.0325 7.02042 10.5034 6.48695 9.94026 6.1197C9.3771 5.75313 8.69447 5.56984 7.89239 5.56984C6.86845 5.56984 6.01517 5.91116 5.33255 6.59378C4.64993 7.2764 4.30861 8.12968 4.30861 9.15362C4.30861 10.041 4.62433 10.9837 5.25576 11.9817C5.88718 12.9804 6.64251 13.9491 7.52173 14.8877C8.40026 15.8263 9.30474 16.7052 10.2352 17.5243C11.1649 18.3434 11.9199 19.0175 12.5001 19.5466C13.0803 19.0175 13.8357 18.3434 14.7661 17.5243C15.6958 16.7052 16.6003 15.8263 17.4795 14.8877C18.358 13.9491 19.113 12.9804 19.7445 11.9817C20.3759 10.9837 20.6916 10.041 20.6916 9.15362C20.6916 8.12968 20.3503 7.2764 19.6677 6.59378C18.985 5.91116 18.1318 5.56984 17.1078 5.56984C16.3057 5.56984 15.6231 5.75313 15.0599 6.1197C14.4968 6.48695 13.9677 7.02042 13.4728 7.72011C13.3534 7.89077 13.2083 8.01876 13.0377 8.10409C12.867 8.18941 12.6878 8.23208 12.5001 8.23208C12.3124 8.23208 12.1332 8.18941 11.9625 8.10409C11.7919 8.01876 11.6468 7.89077 11.5274 7.72011Z" fill="#EBF7F4"/>
</g>
</svg>
