<svg width="13" height="20" viewBox="0 0 13 20" fill="none" xmlns="http://www.w3.org/2000/svg">
<path d="M6.19727 0L6.19727 7.16923C6.19727 7.2 6.1665 7.23077 6.13573 7.23077C5.92035 7.32308 5.73573 7.41538 5.52035 7.50769C5.24343 7.63077 4.93573 7.75385 4.65881 7.90769L3.64343 8.36923L2.81266 8.73846L1.79727 9.2C1.52035 9.32308 1.24343 9.44615 0.935735 9.6C0.72035 9.69231 0.474196 9.81538 0.258812 9.90769C0.228042 9.90769 0.228042 9.93846 0.197273 9.90769H0.166504C0.258812 9.75385 0.351119 9.63077 0.443427 9.47692C0.935735 8.64615 1.45881 7.81538 1.95112 6.98462C2.4742 6.09231 3.02804 5.2 3.55112 4.30769C4.04343 3.47692 4.53573 2.64615 5.02804 1.84615C5.39727 1.23077 5.7665 0.646154 6.10497 0.0307692C6.1665 0.0307692 6.1665 0 6.19727 0C6.19727 0 6.1665 0 6.19727 0Z" fill="#8A92B2"/>
<path d="M12.1665 9.9077C11.705 10.2154 11.2127 10.4923 10.7511 10.7692C9.24343 11.6616 7.7665 12.5231 6.25881 13.4154C6.22804 13.4154 6.22804 13.4462 6.19727 13.4462C6.1665 13.4462 6.1665 13.4154 6.1665 13.4154V13.3231L6.1665 7.32309V7.23078C6.1665 7.20001 6.19727 7.20001 6.22804 7.20001C6.35112 7.26155 6.4742 7.32309 6.62804 7.38463C6.99727 7.56924 7.39727 7.72309 7.7665 7.9077C8.10497 8.06155 8.41266 8.2154 8.75112 8.33847C9.08958 8.49232 9.39727 8.64617 9.73573 8.80001C10.0127 8.92309 10.3204 9.04617 10.5973 9.20001C10.8742 9.32309 11.1819 9.44617 11.4588 9.60001C11.6742 9.69232 11.8896 9.8154 12.1357 9.9077C12.1357 9.87694 12.1357 9.9077 12.1665 9.9077Z" fill="#454A75"/>
<path d="M6.19727 19.4769C6.19727 19.4769 6.1665 19.4769 6.19727 19.4769C6.1665 19.4769 6.1665 19.4769 6.13573 19.4461C5.52034 18.5846 4.93573 17.7538 4.32034 16.8923L2.47419 14.3077C1.88957 13.4769 1.27419 12.6461 0.689573 11.7846L0.228035 11.1384C0.228035 11.1077 0.197266 11.1077 0.197266 11.0769C0.228035 11.0769 0.228035 11.1077 0.258804 11.1077C1.08957 11.6 1.95111 12.0923 2.78188 12.5846C3.73573 13.1692 4.72034 13.7231 5.67419 14.3077C5.82803 14.4 6.01265 14.4923 6.1665 14.5846C6.19727 14.5846 6.19727 14.6154 6.19727 14.6461L6.19727 19.4769Z" fill="#8A92B2"/>
<path d="M0.197266 9.90771C0.197266 9.90771 0.228035 9.90771 0.197266 9.90771C0.228035 9.90771 0.228035 9.90771 0.197266 9.90771C0.197266 9.93848 0.197266 9.93848 0.197266 9.90771Z" fill="#808080"/>
<path d="M0.228027 9.93848C0.228027 9.90771 0.228027 9.90771 0.228027 9.93848C0.53572 9.78463 0.843412 9.66156 1.1511 9.50771L2.3511 8.95387C2.6588 8.80002 2.96649 8.67694 3.27418 8.5231C3.70495 8.30771 4.16649 8.1231 4.59726 7.90771C4.90495 7.78464 5.21264 7.63079 5.52033 7.50771C5.73572 7.4154 5.9511 7.3231 6.16649 7.20002C6.19726 7.20002 6.19726 7.16925 6.22803 7.16925L6.22803 13.4462C6.19726 13.4769 6.19726 13.4462 6.16649 13.4462C6.07418 13.3846 5.98187 13.3539 5.92033 13.2923L0.289566 9.96925C0.258797 9.93848 0.228027 9.93848 0.228027 9.93848Z" fill="#62688F"/>
<path d="M12.1357 11.0769C12.1357 11.1077 12.1357 11.1077 12.105 11.1384C10.3203 13.6615 8.53573 16.1538 6.75111 18.6769C6.5665 18.9538 6.38188 19.2 6.19727 19.4769V19.4461V19.3846L6.19727 14.6769V14.5846C6.59727 14.3384 6.99727 14.0923 7.39727 13.8769L12.105 11.1077C12.105 11.0769 12.1357 11.0769 12.1357 11.0769Z" fill="#62688F"/>
<path d="M6.19727 7.19999V7.13845L6.19727 0.0923002V0.0307617L12.105 9.81538C12.1357 9.84615 12.1665 9.87692 12.1665 9.90769C12.0434 9.84615 11.9203 9.78461 11.7665 9.72307C11.6127 9.66153 11.4588 9.56923 11.305 9.50769C11.2127 9.47692 11.1203 9.41538 10.9973 9.38461C10.8434 9.32307 10.6588 9.23076 10.505 9.16922C10.4126 9.13846 10.3203 9.07692 10.228 9.04615L9.58188 8.76922C9.4588 8.70769 9.3665 8.67692 9.24342 8.61538C9.08957 8.55384 8.93573 8.46153 8.78188 8.39999C8.68957 8.36922 8.59727 8.30769 8.50496 8.27692L7.8588 7.99999C7.73573 7.93846 7.64342 7.90769 7.52034 7.84615C7.3665 7.78461 7.21265 7.6923 7.0588 7.63076C6.9665 7.56922 6.84342 7.53846 6.75111 7.47692L6.19727 7.19999Z" fill="#62688F"/>
</svg>
