<svg width="25" height="26" viewBox="0 0 25 26" fill="none" xmlns="http://www.w3.org/2000/svg">
<path d="M11.1188 21.0825L9.35248 19.4698C7.54352 17.8144 5.90966 16.1717 4.45089 14.5416C2.99144 12.9121 2.26172 11.1162 2.26172 9.15362C2.26172 7.54945 2.79929 6.2098 3.87442 5.13467C4.94955 4.05954 6.2892 3.52197 7.89337 3.52197C8.79784 3.52197 9.65112 3.71379 10.4532 4.09742C11.2553 4.48174 11.9379 5.00668 12.5011 5.67224C13.0642 5.00668 13.7469 4.48174 14.549 4.09742C15.351 3.71379 16.2043 3.52197 17.1088 3.52197C18.713 3.52197 20.0526 4.05954 21.1277 5.13467C22.2029 6.2098 22.7404 7.54945 22.7404 9.15362C22.7404 11.1162 22.0152 12.9166 20.5646 14.5549C19.114 16.1932 17.4672 17.84 15.6241 19.4954L13.8834 21.0825C13.4909 21.4409 13.0301 21.62 12.5011 21.62C11.972 21.62 11.5113 21.4409 11.1188 21.0825Z" fill="#E2FA91"/>
</svg>
