<svg width="16" height="15" viewBox="0 0 16 15" fill="none" xmlns="http://www.w3.org/2000/svg">
<path d="M8 11.25C8.2125 11.25 8.39075 11.178 8.53475 11.034C8.67825 10.8905 8.75 10.7125 8.75 10.5V7.48125C8.75 7.26875 8.67825 7.09375 8.53475 6.95625C8.39075 6.81875 8.2125 6.75 8 6.75C7.7875 6.75 7.6095 6.82175 7.466 6.96525C7.322 7.10925 7.25 7.2875 7.25 7.5V10.5187C7.25 10.7312 7.322 10.9062 7.466 11.0438C7.6095 11.1813 7.7875 11.25 8 11.25ZM8 5.25C8.2125 5.25 8.39075 5.178 8.53475 5.034C8.67825 4.8905 8.75 4.7125 8.75 4.5C8.75 4.2875 8.67825 4.10925 8.53475 3.96525C8.39075 3.82175 8.2125 3.75 8 3.75C7.7875 3.75 7.6095 3.82175 7.466 3.96525C7.322 4.10925 7.25 4.2875 7.25 4.5C7.25 4.7125 7.322 4.8905 7.466 5.034C7.6095 5.178 7.7875 5.25 8 5.25ZM8 15C6.9625 15 5.9875 14.803 5.075 14.409C4.1625 14.0155 3.36875 13.4813 2.69375 12.8063C2.01875 12.1313 1.4845 11.3375 1.091 10.425C0.697 9.5125 0.5 8.5375 0.5 7.5C0.5 6.4625 0.697 5.4875 1.091 4.575C1.4845 3.6625 2.01875 2.86875 2.69375 2.19375C3.36875 1.51875 4.1625 0.98425 5.075 0.59025C5.9875 0.19675 6.9625 0 8 0C9.0375 0 10.0125 0.19675 10.925 0.59025C11.8375 0.98425 12.6313 1.51875 13.3063 2.19375C13.9813 2.86875 14.5155 3.6625 14.909 4.575C15.303 5.4875 15.5 6.4625 15.5 7.5C15.5 8.5375 15.303 9.5125 14.909 10.425C14.5155 11.3375 13.9813 12.1313 13.3063 12.8063C12.6313 13.4813 11.8375 14.0155 10.925 14.409C10.0125 14.803 9.0375 15 8 15ZM8 13.5C9.6625 13.5 11.0782 12.9158 12.2472 11.7472C13.4158 10.5782 14 9.1625 14 7.5C14 5.8375 13.4158 4.42175 12.2472 3.25275C11.0782 2.08425 9.6625 1.5 8 1.5C6.3375 1.5 4.922 2.08425 3.7535 3.25275C2.5845 4.42175 2 5.8375 2 7.5C2 9.1625 2.5845 10.5782 3.7535 11.7472C4.922 12.9158 6.3375 13.5 8 13.5Z" fill="#F00"/>
</svg>
